<svg id="svgs"><symbol viewBox="0 0 20 20" id="shape-admin-plugins"><title>admin-plugins</title>  <path d="M13.11 4.36l-3.24 3.24-1.87-1.87 3.24-3.24q0.26-0.26 0.72-0.165t0.84 0.485q0.39 0.38 0.48 0.835t-0.17 0.715zM5.11 6.13l0.91-1.12 9.010 9.010-1.19 0.84q-0.5 0.5-1.675 0.83t-2.145 0.33h-3.88l-1.24 1.24q-0.44 0.44-1.060 0.44t-1.060-0.44q-0.44-0.43-0.44-1.055t0.44-1.065l1.24-1.24v-3.88q0-0.96 0.305-2.18t0.785-1.71zM12.37 10.1l3.24-3.24q0.25-0.26 0.71-0.17t0.84 0.48q0.39 0.38 0.48 0.835t-0.17 0.715l-3.24 3.25z"/> </symbol><symbol viewBox="0 0 20 20" id="shape-author"><title>author</title>  <path d="M10 9.25q-0.46 0-0.865-0.19t-0.675-0.495-0.49-0.67-0.345-0.73-0.21-0.67-0.115-0.495l-0.030-0.19q-0.060-0.55-0.030-1.085t0.245-1.030 0.53-0.87 0.825-0.6 1.13-0.225q1.030 0 1.71 0.59t0.91 1.44 0.090 1.78q-0.010 0.070-0.030 0.195t-0.105 0.48-0.205 0.68-0.335 0.725-0.48 0.685-0.665 0.48-0.86 0.195zM10 11.67l2.72-1.82q1.16 0 2.215 0.67t1.68 1.72 0.625 2.14v2.49q-0.15 0.050-0.415 0.125t-1.090 0.27-1.645 0.345-1.95 0.27-2.14 0.12q-1.020 0-2.145-0.115t-1.995-0.28-1.595-0.335-1.115-0.29l-0.39-0.11v-2.49q0-1.12 0.58-2.15t1.625-1.68 2.265-0.65z"/> </symbol><symbol viewBox="0 0 20 20" id="shape-calendar"><title>calendar</title>  <path d="M15 4h3v14h-16v-14h3v-1q0-0.62 0.44-1.060t1.060-0.44 1.060 0.44 0.44 1.060v1h4v-1q0-0.62 0.44-1.060t1.060-0.44 1.060 0.44 0.44 1.060v1zM6 3v2.5q0 0.21 0.145 0.355t0.355 0.145 0.355-0.145 0.145-0.355v-2.5q0-0.21-0.145-0.355t-0.355-0.145-0.355 0.145-0.145 0.355zM13 3v2.5q0 0.21 0.145 0.355t0.355 0.145 0.355-0.145 0.145-0.355v-2.5q0-0.21-0.145-0.355t-0.355-0.145-0.355 0.145-0.145 0.355zM17 17v-9h-14v9h14zM7 16v-7h-2v7h2zM11 16v-7h-2v7h2zM15 16v-7h-2v7h2z"/> </symbol><symbol viewBox="0 0 20 20" id="shape-category"><title>category</title>  <path d="M5 7h13v10h-16v-13h7l2 2h-7v9h1v-8z"/> </symbol><symbol viewBox="0 0 20 20" id="shape-facebook"><title>facebook</title>  <path d="M8.46 18h2.93v-7.3h2.45l0.37-2.84h-2.82v-1.82q0-0.69 0.295-1.035t1.115-0.345h1.51v-2.55q-0.95-0.11-2.19-0.11-1.67 0-2.665 0.985t-0.995 2.775v2.1h-2.46v2.84h2.46v7.3z"/> </symbol><symbol viewBox="-289 108 20 20" id="shape-post"><title>post</title> <path d="M-272.1,109.2l1.4,1.4c0.2,0.2,0.3,0.4,0.3,0.7c0,0.3-0.1,0.5-0.3,0.7l-4.3,4.3v9.7h-11v-15h10.7l1.8-1.8
	c0.2-0.2,0.4-0.3,0.7-0.3S-272.3,109-272.1,109.2z M-277.8,117.7l5.4-5.4l-1.4-1.4l-5.4,5.4l-0.7,2.1L-277.8,117.7z"/> </symbol><symbol viewBox="0 0 20 20" id="shape-rss"><title>rss</title>  <path d="M14.92 18h3.080q0-2.14-0.575-4.18t-1.61-3.765-2.51-3.18-3.23-2.475-3.83-1.585-4.245-0.565v3.020q2.1 0 4.070 0.645t3.56 1.82 2.785 2.74 1.85 3.51 0.655 4.015zM9.48 18h3.080q0-2.11-0.84-4.035t-2.255-3.32-3.37-2.22-4.095-0.825v3.020q1.5 0 2.86 0.56t2.43 1.6q1.060 1.040 1.625 2.39t0.565 2.83zM4.13 17.98q0.88 0 1.505-0.61t0.625-1.48q0-0.86-0.625-1.475t-1.505-0.615-1.505 0.615-0.625 1.475q0 0.87 0.62 1.48t1.51 0.61z"/> </symbol><symbol viewBox="0 0 20 20" id="shape-search"><title>search</title>  <path d="M12.14 4.18q1.39 1.39 1.58 3.345t-0.86 3.545q0.030 0.030 0.155 0.14t0.205 0.17q0.34 0.27 0.81 0.59 0.62 0.43 0.66 0.47 0.61 0.45 0.94 0.78 0.49 0.49 0.84 1 0.36 0.5 0.59 1.040 0.22 0.55 0.18 1-0.030 0.48-0.36 0.81t-0.81 0.36q-0.49 0.030-0.99-0.19-0.52-0.21-1.040-0.59-0.51-0.35-1-0.84-0.33-0.33-0.77-0.93-0.020-0.030-0.47-0.66-0.32-0.46-0.56-0.78-0.24-0.3-0.44-0.5-1.54 0.83-3.34 0.57t-3.1-1.55q-1.6-1.61-1.6-3.895t1.6-3.885q1.060-1.060 2.475-1.435t2.83 0 2.475 1.435zM10.73 10.54q1.020-1.030 1.020-2.475t-1.020-2.475q-1.030-1.030-2.48-1.030t-2.47 1.030q-1.030 1.030-1.030 2.475t1.030 2.475q1.020 1.030 2.47 1.030t2.48-1.030z"/> </symbol><symbol viewBox="0 0 20 20" id="shape-twitter"><title>twitter</title>  <path d="M18.94 4.46q-0.75 1.12-1.83 1.9 0.010 0.15 0.010 0.47 0 1.47-0.43 2.945t-1.31 2.825-2.1 2.39-2.93 1.66-3.66 0.62q-3.040 0-5.63-1.65 0.48 0.050 0.88 0.050 2.55 0 4.55-1.57-1.19-0.020-2.125-0.73t-1.295-1.82q0.39 0.070 0.69 0.070 0.47 0 0.96-0.13-1.27-0.26-2.105-1.27t-0.835-2.33v-0.040q0.8 0.43 1.66 0.46-0.75-0.51-1.19-1.315t-0.44-1.745q0-1 0.5-1.84 1.38 1.69 3.345 2.705t4.215 1.125q-0.1-0.45-0.1-0.84 0-1.51 1.075-2.585t2.595-1.075q1.6 0 2.68 1.16 1.26-0.26 2.33-0.89-0.43 1.32-1.62 2.020 1.070-0.11 2.11-0.57z"/> </symbol></svg>